<svg xmlns="http://www.w3.org/2000/svg" width="152" height="17" viewBox="0 0 152 17" fill="none"><path d="M11.2275 13.328H5.13721L4.1609 16.1387H0L5.9043 0.226667H10.5069L16.4112 16.1387H12.2038L11.2275 13.328ZM10.2047 10.336L8.18234 4.51067L6.18324 10.336H10.2047ZM22.1134 0.226667V9.74667C22.1134 10.6987 22.3535 11.4315 22.834 11.9453C23.3143 12.4592 24.0195 12.716 24.9493 12.716C25.8791 12.716 26.5919 12.4592 27.0879 11.9453C27.5837 11.4315 27.8317 10.6987 27.8317 9.74667V0.226667H31.8067V9.724C31.8067 11.1445 31.4966 12.3458 30.8769 13.328C30.2569 14.3102 29.4201 15.0507 28.3664 15.5493C27.328 16.048 26.1658 16.2973 24.8796 16.2973C23.5932 16.2973 22.4388 16.0555 21.416 15.572C20.4086 15.0733 19.6106 14.3328 19.0218 13.3507C18.4328 12.3533 18.1384 11.1445 18.1384 9.724V0.226667H22.1134ZM46.3367 0.226667V3.332H42.0131V16.1387H38.0381V3.332H33.7145V0.226667H46.3367ZM56.0492 16.2973C54.515 16.2973 53.1047 15.9498 51.8185 15.2547C50.5477 14.5595 49.5326 13.5925 48.7734 12.3533C48.0294 11.0992 47.6575 9.69383 47.6575 8.13733C47.6575 6.58084 48.0294 5.18316 48.7734 3.944C49.5326 2.70488 50.5477 1.73778 51.8185 1.04267C53.1047 0.347551 54.515 0 56.0492 0C57.5834 0 58.9858 0.347551 60.2566 1.04267C61.5428 1.73778 62.55 2.70488 63.2784 3.944C64.0223 5.18316 64.3942 6.58084 64.3942 8.13733C64.3942 9.69383 64.0223 11.0992 63.2784 12.3533C62.5346 13.5925 61.5272 14.5595 60.2566 15.2547C58.9858 15.9498 57.5834 16.2973 56.0492 16.2973ZM56.0492 12.7613C57.3509 12.7613 58.3891 12.3382 59.1639 11.492C59.9544 10.6458 60.3495 9.52751 60.3495 8.13733C60.3495 6.732 59.9544 5.61383 59.1639 4.78267C58.3891 3.93645 57.3509 3.51333 56.0492 3.51333C54.7319 3.51333 53.6781 3.92888 52.8878 4.76C52.1129 5.59116 51.7255 6.71684 51.7255 8.13733C51.7255 9.54267 52.1129 10.6685 52.8878 11.5147C53.6781 12.3458 54.7319 12.7613 56.0492 12.7613ZM74.323 16.2973C72.7888 16.2973 71.3786 15.9498 70.0924 15.2547C68.8216 14.5595 67.8065 13.5925 67.0472 12.3533C66.3034 11.0992 65.9315 9.69383 65.9315 8.13733C65.9315 6.58084 66.3034 5.18316 67.0472 3.944C67.8065 2.70488 68.8216 1.73778 70.0924 1.04267C71.3786 0.347551 72.7888 0 74.323 0C75.8572 0 77.2596 0.347551 78.5304 1.04267C79.8166 1.73778 80.8238 2.70488 81.5523 3.944C82.2961 5.18316 82.6681 6.58084 82.6681 8.13733C82.6681 9.69383 82.2961 11.0992 81.5523 12.3533C80.8084 13.5925 79.801 14.5595 78.5304 15.2547C77.2596 15.9498 75.8572 16.2973 74.323 16.2973ZM74.323 12.7613C75.6247 12.7613 76.6629 12.3382 77.4379 11.492C78.2282 10.6458 78.6234 9.52751 78.6234 8.13733C78.6234 6.732 78.2282 5.61383 77.4379 4.78267C76.6629 3.93645 75.6247 3.51333 74.323 3.51333C73.0057 3.51333 71.952 3.92888 71.1617 4.76C70.3867 5.59116 69.9994 6.71684 69.9994 8.13733C69.9994 9.54267 70.3867 10.6685 71.1617 11.5147C71.952 12.3458 73.0057 12.7613 74.323 12.7613ZM95.5025 0.226667V3.332H88.8544V6.68667H93.8289V9.70133H88.8544V16.1387H84.8794V0.226667H95.5025ZM111.585 0.226667L105.937 10.88V16.1387H101.962V10.88L96.3132 0.226667H100.823L103.984 6.89067L107.122 0.226667H111.585Z" fill="#1D3557"></path><path d="M140.552 16.1387H138.437L129.929 3.55872V16.1387H127.814V0.317383H129.929L138.437 12.8747V0.317383H140.552V16.1387ZM146.274 14.4614H151.945V16.1387H144.158V0.34005H146.274V14.4614Z" fill="#1D3557"></path><path d="M118.76 13.3053C121.167 13.3053 123.118 11.4025 123.118 9.0553C123.118 6.70809 121.167 4.8053 118.76 4.8053C116.353 4.8053 114.401 6.70809 114.401 9.0553C114.401 11.4025 116.353 13.3053 118.76 13.3053Z" fill="#B22234"></path></svg>